<svg xmlns="http://www.w3.org/2000/svg" width="320" height="320" viewBox="0 0 320 320">
<circle cx="160.00" cy="160.00" r="48.00" fill="none" stroke="#7d8590" stroke-width="1.5"/>
<circle cx="160.00" cy="160.00" r="76.67" fill="none" stroke="#7d8590" stroke-width="1.5"/>
<circle cx="160.00" cy="160.00" r="105.33" fill="none" stroke="#7d8590" stroke-width="1.5"/>
<circle cx="160.00" cy="160.00" r="134.00" fill="none" stroke="#7d8590" stroke-width="1.5"/>
<circle cx="160.00" cy="112.00" r="5.00" fill="#4c8eda"/><circle cx="160.00" cy="208.00" r="5.00" fill="#4c8eda"/>
<circle cx="160.00" cy="83.33" r="5.00" fill="#4c8eda"/><circle cx="214.21" cy="105.79" r="5.00" fill="#4c8eda"/><circle cx="236.67" cy="160.00" r="5.00" fill="#4c8eda"/><circle cx="214.21" cy="214.21" r="5.00" fill="#4c8eda"/><circle cx="160.00" cy="236.67" r="5.00" fill="#4c8eda"/><circle cx="105.79" cy="214.21" r="5.00" fill="#4c8eda"/><circle cx="83.33" cy="160.00" r="5.00" fill="#4c8eda"/><circle cx="105.79" cy="105.79" r="5.00" fill="#4c8eda"/>
<circle cx="160.00" cy="54.67" r="5.00" fill="#4c8eda"/><circle cx="205.70" cy="65.10" r="5.00" fill="#4c8eda"/><circle cx="242.35" cy="94.33" r="5.00" fill="#4c8eda"/><circle cx="262.69" cy="136.56" r="5.00" fill="#4c8eda"/><circle cx="262.69" cy="183.44" r="5.00" fill="#4c8eda"/><circle cx="242.35" cy="225.67" r="5.00" fill="#4c8eda"/><circle cx="205.70" cy="254.90" r="5.00" fill="#4c8eda"/><circle cx="160.00" cy="265.33" r="5.00" fill="#4c8eda"/><circle cx="114.30" cy="254.90" r="5.00" fill="#4c8eda"/><circle cx="77.65" cy="225.67" r="5.00" fill="#4c8eda"/><circle cx="57.31" cy="183.44" r="5.00" fill="#4c8eda"/><circle cx="57.31" cy="136.56" r="5.00" fill="#4c8eda"/><circle cx="77.65" cy="94.33" r="5.00" fill="#4c8eda"/><circle cx="114.30" cy="65.10" r="5.00" fill="#4c8eda"/>
<circle cx="160.00" cy="26.00" r="5.00" fill="#3d8b40"/><circle cx="160.00" cy="294.00" r="5.00" fill="#3d8b40"/>
<circle cx="160.00" cy="160.00" r="22.00" fill="#b26a00"/>
<text x="160.00" y="196.00" fill="#7d8590" font-size="12.0" font-family="sans-serif" text-anchor="middle">Z=26</text>
</svg>