<svg xmlns="http://www.w3.org/2000/svg" width="320" height="320" viewBox="0 0 320 320">
<circle cx="160.00" cy="160.00" r="48.00" fill="none" stroke="#7d8590" stroke-width="1.5"/>
<circle cx="160.00" cy="160.00" r="76.67" fill="none" stroke="#7d8590" stroke-width="1.5"/>
<circle cx="160.00" cy="160.00" r="105.33" fill="none" stroke="#7d8590" stroke-width="1.5"/>
<circle cx="160.00" cy="160.00" r="134.00" fill="none" stroke="#7d8590" stroke-width="1.5"/>
<circle cx="160.00" cy="112.00" r="5.00" fill="#4c8eda"/><circle cx="160.00" cy="208.00" r="5.00" fill="#4c8eda"/>
<circle cx="160.00" cy="83.33" r="5.00" fill="#4c8eda"/><circle cx="214.21" cy="105.79" r="5.00" fill="#4c8eda"/><circle cx="236.67" cy="160.00" r="5.00" fill="#4c8eda"/><circle cx="214.21" cy="214.21" r="5.00" fill="#4c8eda"/><circle cx="160.00" cy="236.67" r="5.00" fill="#4c8eda"/><circle cx="105.79" cy="214.21" r="5.00" fill="#4c8eda"/><circle cx="83.33" cy="160.00" r="5.00" fill="#4c8eda"/><circle cx="105.79" cy="105.79" r="5.00" fill="#4c8eda"/>
<circle cx="160.00" cy="54.67" r="5.00" fill="#4c8eda"/><circle cx="234.48" cy="85.52" r="5.00" fill="#4c8eda"/><circle cx="265.33" cy="160.00" r="5.00" fill="#4c8eda"/><circle cx="234.48" cy="234.48" r="5.00" fill="#4c8eda"/><circle cx="160.00" cy="265.33" r="5.00" fill="#4c8eda"/><circle cx="85.52" cy="234.48" r="5.00" fill="#4c8eda"/><circle cx="54.67" cy="160.00" r="5.00" fill="#4c8eda"/><circle cx="85.52" cy="85.52" r="5.00" fill="#4c8eda"/>
<circle cx="160.00" cy="26.00" r="5.00" fill="#3d8b40"/>
<circle cx="160.00" cy="160.00" r="22.00" fill="#b26a00"/>
<text x="160.00" y="196.00" fill="#7d8590" font-size="12.0" font-family="sans-serif" text-anchor="middle">Z=19</text>
</svg>